<svg width="76" height="57" viewBox="0 0 76 57" fill="none" xmlns="http://www.w3.org/2000/svg">
<mask id="mask0_4850_208" style="mask-type:luminance" maskUnits="userSpaceOnUse" x="0" y="0" width="76" height="57">
<path d="M75.5695 46.1183V46.8973C75.5695 47.2706 75.5695 47.644 75.5666 48.0173C75.5636 48.3318 75.5607 48.6463 75.5519 48.9609C75.5343 49.6458 75.4931 50.3366 75.3726 51.0127C75.2491 51.7005 75.0463 52.3413 74.7288 52.9645C74.4172 53.5789 74.0086 54.1403 73.5207 54.6254C73.0327 55.1133 72.4713 55.519 71.8598 55.8335C71.2367 56.151 70.5958 56.3538 69.908 56.4773C69.2319 56.5978 68.5411 56.6389 67.8562 56.6566C67.5417 56.6654 67.2271 56.6683 66.9126 56.6713C66.5393 56.6742 66.166 56.6742 65.7926 56.6742L61.5039 56.6713L65.4957 56.6742H10.0738L14.0657 56.6713L9.77689 56.6742C9.40357 56.6742 9.03025 56.6742 8.65693 56.6713C8.3424 56.6683 8.02786 56.6654 7.71333 56.6566C7.02842 56.6389 6.33763 56.5978 5.66154 56.4773C4.97369 56.3538 4.33581 56.151 3.70969 55.8335C3.09533 55.5219 2.53388 55.1133 2.04885 54.6254C1.56089 54.1374 1.15524 53.5759 0.840706 52.9645C0.523236 52.3413 0.320409 51.7005 0.196948 51.0127C0.0764276 50.3366 0.0352745 49.6458 0.0176373 48.9609C0.00881872 48.6463 0.00587885 48.3318 0.00293932 48.0173C-2.13195e-07 47.644 0 47.2706 0 46.8973V46.2859V10.3883V14.0627V9.77395C0 9.40063 -2.13195e-07 9.02731 0.00293932 8.65399C0.00587885 8.33946 0.00881872 8.02493 0.0176373 7.7104C0.0352745 7.02549 0.0764276 6.3347 0.196948 5.6586C0.320409 4.97075 0.523236 4.32994 0.840706 3.70675C1.1523 3.09239 1.56089 2.53094 2.04885 2.04592C2.53682 1.56089 3.09827 1.1523 3.71263 0.840707C4.33581 0.523238 4.97663 0.32041 5.66448 0.19695C6.34057 0.076429 7.03136 0.0352745 7.71628 0.0176373C8.03081 0.00881872 8.34534 0.00588026 8.65987 0.00294072C9.03319 1.18848e-06 9.40651 0 9.77983 0H14.0686H65.4987H65.7926C66.166 0 66.5393 1.18848e-06 66.9126 0.00294072C67.2271 0.00588026 67.5417 0.00881872 67.8562 0.0176373C68.5411 0.0352745 69.2319 0.076429 69.908 0.19695C70.5958 0.32041 71.2337 0.523238 71.8598 0.840707C72.4742 1.1523 73.0357 1.56089 73.5207 2.04886C74.0086 2.53682 74.4143 3.09827 74.7288 3.70969C75.0463 4.33287 75.2491 4.97369 75.3726 5.66154C75.4931 6.33764 75.5343 7.02843 75.5519 7.71334C75.5607 8.02787 75.5636 8.3424 75.5666 8.65693C75.5695 9.03025 75.5695 9.40357 75.5695 9.77689V10.5559V46.1183Z" fill="white"/>
</mask>
<g mask="url(#mask0_4850_208)">
<path d="M73.1767 2.3606H2.33398V51.6889H73.1767V2.3606Z" fill="#DEDBCE"/>
<path d="M72.4213 3.14844H3.15118V32.535H72.4213V3.14844Z" fill="#40A5D9"/>
<g filter="url(#filter0_d_4850_208)">
<path fill-rule="evenodd" clip-rule="evenodd" d="M72.4183 15.6473C72.4183 15.4091 72.4183 15.174 72.4183 14.9359C72.4183 14.736 72.4154 14.5361 72.4095 14.3362C72.3977 13.9012 72.3713 13.4632 72.2948 13.034C72.2155 12.599 72.0891 12.1933 71.8863 11.7965C71.6893 11.4084 71.4306 11.0498 71.119 10.7412C70.8104 10.4325 70.4547 10.1738 70.0637 9.97395C69.6669 9.77112 69.2612 9.64472 68.8262 9.56536C68.397 9.48893 67.959 9.46247 67.524 9.45071C67.3241 9.44483 67.1242 9.44189 66.9243 9.44189C66.6862 9.44189 66.4511 9.44189 66.213 9.44189H66.0189H12.0726H9.35355C9.11545 9.44189 8.88028 9.44189 8.64218 9.44189C8.44229 9.44189 8.24241 9.44483 8.04252 9.45071C7.60747 9.46247 7.16948 9.48893 6.7403 9.56536C6.30525 9.64472 5.8996 9.77112 5.50276 9.97395C5.11474 10.1709 4.75612 10.4296 4.44747 10.7412C4.13881 11.0498 3.88014 11.4055 3.68025 11.7965C3.47742 12.1933 3.35102 12.599 3.27165 13.034C3.19523 13.4632 3.16877 13.9012 3.15701 14.3362C3.15113 14.5361 3.14819 14.736 3.14819 14.9359C3.14819 15.174 3.14819 15.4091 3.14819 15.6473V18.3663V16.2293V38.8314H72.4183V16.3704V15.6473Z" fill="#FFB003"/>
</g>
<g filter="url(#filter1_d_4850_208)">
<path fill-rule="evenodd" clip-rule="evenodd" d="M72.4184 21.9436C72.4184 21.7055 72.4184 21.4704 72.4184 21.2323C72.4184 21.0324 72.4154 20.8325 72.4095 20.6326C72.3978 20.1976 72.3713 19.7596 72.2949 19.3304C72.2155 18.8953 72.0891 18.4897 71.8863 18.0928C71.6894 17.7048 71.4307 17.3462 71.1191 17.0376C70.8104 16.7289 70.4548 16.4702 70.0638 16.2703C69.667 16.0675 69.2613 15.9411 68.8263 15.8617C68.3971 15.7853 67.9591 15.7589 67.524 15.7471C67.3242 15.7412 67.1243 15.7383 66.9244 15.7383C66.6863 15.7383 66.4511 15.7383 66.213 15.7383H66.0161H12.0727H9.35361C9.11551 15.7383 8.88034 15.7383 8.64224 15.7383C8.44235 15.7383 8.24247 15.7412 8.04258 15.7471C7.60753 15.7589 7.16954 15.7853 6.74036 15.8617C6.30531 15.9411 5.89966 16.0675 5.50282 16.2703C5.1148 16.4673 4.75618 16.726 4.44753 17.0376C4.13888 17.3462 3.8802 17.7019 3.68031 18.0928C3.47748 18.4897 3.35108 18.8953 3.27171 19.3304C3.19529 19.7596 3.16883 20.1976 3.15707 20.6326C3.15119 20.8325 3.14825 21.0324 3.14825 21.2323C3.14825 21.4704 3.14825 21.7055 3.14825 21.9436V24.6627V22.5257V45.1277H72.4184V22.6668V21.9436Z" fill="#40C740"/>
</g>
<g filter="url(#filter2_d_4850_208)">
<path fill-rule="evenodd" clip-rule="evenodd" d="M72.4183 28.2403C72.4183 28.0022 72.4183 27.767 72.4183 27.5289C72.4183 27.329 72.4154 27.1291 72.4095 26.9292C72.3977 26.4942 72.3713 26.0562 72.2948 25.627C72.2155 25.192 72.0891 24.7863 71.8863 24.3895C71.6893 24.0015 71.4306 23.6428 71.119 23.3342C70.8104 23.0255 70.4547 22.7669 70.0637 22.567C69.6669 22.3641 69.2612 22.2377 68.8262 22.1584C68.397 22.0819 67.959 22.0555 67.524 22.0437C67.3241 22.0379 67.1242 22.0349 66.9243 22.0349C66.6862 22.0349 66.4511 22.0349 66.213 22.0349H66.016H12.0726H9.35355C9.11545 22.0349 8.88028 22.0349 8.64218 22.0349C8.44229 22.0349 8.24241 22.0379 8.04252 22.0437C7.60747 22.0555 7.16948 22.0819 6.7403 22.1584C6.30525 22.2377 5.8996 22.3641 5.50276 22.567C5.11474 22.7639 4.75612 23.0226 4.44747 23.3342C4.13881 23.6428 3.88014 23.9985 3.68025 24.3895C3.47742 24.7863 3.35102 25.192 3.27165 25.627C3.19523 26.0562 3.16877 26.4942 3.15701 26.9292C3.15113 27.1291 3.14819 27.329 3.14819 27.5289C3.14819 27.767 3.14819 28.0022 3.14819 28.2403V30.9593V28.8223V51.4244H72.4183V28.9634V28.2403Z" fill="#F26D5F"/>
</g>
<path fill-rule="evenodd" clip-rule="evenodd" d="M-1.04651 -1.04932V31.4854H3.15114V12.0698V9.35075C3.15114 9.11265 3.15114 8.87749 3.15114 8.63939C3.15114 8.4395 3.15408 8.23961 3.15996 8.03972C3.17172 7.60467 3.19818 7.16668 3.2746 6.73751C3.35397 6.30246 3.48037 5.8968 3.6832 5.49996C3.88015 5.11195 4.13883 4.75332 4.45042 4.44467C4.75907 4.13602 5.11475 3.87734 5.50571 3.67745C5.89961 3.48051 6.30526 3.35117 6.74032 3.27474C7.16949 3.19831 7.60748 3.17185 8.04253 3.16009C8.24242 3.15422 8.4423 3.15128 8.64219 3.15128C8.88029 3.15128 9.11546 3.15128 9.35356 3.15128H12.0726H66.0101H66.2188C66.4569 3.15128 66.6921 3.15128 66.9302 3.15128C67.1301 3.15128 67.33 3.15422 67.5299 3.16009C67.9649 3.17185 68.4029 3.19831 68.8321 3.27474C69.2671 3.35411 69.6728 3.48051 70.0696 3.68333C70.4576 3.88028 70.8163 4.13896 71.1249 4.45055C71.4336 4.7592 71.6922 5.11489 71.8921 5.50584C72.095 5.90268 72.2214 6.30834 72.3007 6.74339C72.3772 7.17256 72.4036 7.61055 72.4154 8.0456C72.4213 8.24549 72.4242 8.44538 72.4242 8.64526C72.4242 8.88337 72.4242 9.11853 72.4242 9.35663V12.0757V31.4913H76.6218V-1.04932H-1.04651Z" fill="#D9D6CC"/>
<g filter="url(#filter3_d_4850_208)">
<path fill-rule="evenodd" clip-rule="evenodd" d="M57.1092 28.3372C56.6595 28.3372 56.2068 28.3372 55.757 28.3401C55.3778 28.343 54.9986 28.346 54.6194 28.3577C53.7934 28.3813 52.9586 28.4283 52.1414 28.5753C51.3125 28.7252 50.5394 28.9692 49.7868 29.3513C49.6898 29.4013 47.6175 30.3419 45.7538 33.2403C44.3399 35.442 41.5885 37.776 37.7347 37.776C33.884 37.776 31.1326 35.442 29.7157 33.2403C27.755 30.1861 25.518 29.269 25.6797 29.3513C24.9272 28.9662 24.1541 28.7222 23.3252 28.5753C22.508 28.4283 21.6731 28.3783 20.8471 28.3577C20.4679 28.3489 20.0887 28.343 19.7095 28.3401C19.2598 28.3372 18.8071 28.3372 18.3573 28.3372H-1.04358V57.7237H76.6218V28.3372H57.1092Z" fill="#DEDBCE"/>
</g>
</g>
<defs>
<filter id="filter0_d_4850_208" x="0.148193" y="6.24189" width="75.2701" height="35.3894" filterUnits="userSpaceOnUse" color-interpolation-filters="sRGB">
<feFlood flood-opacity="0" result="BackgroundImageFix"/>
<feColorMatrix in="SourceAlpha" type="matrix" values="0 0 0 0 0 0 0 0 0 0 0 0 0 0 0 0 0 0 127 0" result="hardAlpha"/>
<feOffset dy="-0.2"/>
<feGaussianBlur stdDeviation="1.5"/>
<feComposite in2="hardAlpha" operator="out"/>
<feColorMatrix type="matrix" values="0 0 0 0 0 0 0 0 0 0 0 0 0 0 0 0 0 0 0.12 0"/>
<feBlend mode="normal" in2="BackgroundImageFix" result="effect1_dropShadow_4850_208"/>
<feBlend mode="normal" in="SourceGraphic" in2="effect1_dropShadow_4850_208" result="shape"/>
</filter>
<filter id="filter1_d_4850_208" x="0.148254" y="12.5383" width="75.2701" height="35.3894" filterUnits="userSpaceOnUse" color-interpolation-filters="sRGB">
<feFlood flood-opacity="0" result="BackgroundImageFix"/>
<feColorMatrix in="SourceAlpha" type="matrix" values="0 0 0 0 0 0 0 0 0 0 0 0 0 0 0 0 0 0 127 0" result="hardAlpha"/>
<feOffset dy="-0.2"/>
<feGaussianBlur stdDeviation="1.5"/>
<feComposite in2="hardAlpha" operator="out"/>
<feColorMatrix type="matrix" values="0 0 0 0 0 0 0 0 0 0 0 0 0 0 0 0 0 0 0.12 0"/>
<feBlend mode="normal" in2="BackgroundImageFix" result="effect1_dropShadow_4850_208"/>
<feBlend mode="normal" in="SourceGraphic" in2="effect1_dropShadow_4850_208" result="shape"/>
</filter>
<filter id="filter2_d_4850_208" x="0.148193" y="18.8349" width="75.2701" height="35.3894" filterUnits="userSpaceOnUse" color-interpolation-filters="sRGB">
<feFlood flood-opacity="0" result="BackgroundImageFix"/>
<feColorMatrix in="SourceAlpha" type="matrix" values="0 0 0 0 0 0 0 0 0 0 0 0 0 0 0 0 0 0 127 0" result="hardAlpha"/>
<feOffset dy="-0.2"/>
<feGaussianBlur stdDeviation="1.5"/>
<feComposite in2="hardAlpha" operator="out"/>
<feColorMatrix type="matrix" values="0 0 0 0 0 0 0 0 0 0 0 0 0 0 0 0 0 0 0.12 0"/>
<feBlend mode="normal" in2="BackgroundImageFix" result="effect1_dropShadow_4850_208"/>
<feBlend mode="normal" in="SourceGraphic" in2="effect1_dropShadow_4850_208" result="shape"/>
</filter>
<filter id="filter3_d_4850_208" x="-4.04358" y="25.1372" width="83.6654" height="35.3865" filterUnits="userSpaceOnUse" color-interpolation-filters="sRGB">
<feFlood flood-opacity="0" result="BackgroundImageFix"/>
<feColorMatrix in="SourceAlpha" type="matrix" values="0 0 0 0 0 0 0 0 0 0 0 0 0 0 0 0 0 0 127 0" result="hardAlpha"/>
<feOffset dy="-0.2"/>
<feGaussianBlur stdDeviation="1.5"/>
<feComposite in2="hardAlpha" operator="out"/>
<feColorMatrix type="matrix" values="0 0 0 0 0 0 0 0 0 0 0 0 0 0 0 0 0 0 0.12 0"/>
<feBlend mode="normal" in2="BackgroundImageFix" result="effect1_dropShadow_4850_208"/>
<feBlend mode="normal" in="SourceGraphic" in2="effect1_dropShadow_4850_208" result="shape"/>
</filter>
</defs>
</svg>
